<svg aria-label="A chart." style="overflow: hidden;" height="400" width="600"><defs id="defs"><clipPath id="_ABSTRACT_RENDERER_ID_0"><rect height="247" width="371" y="77" x="115"></rect></clipPath></defs><rect fill="#ffffff" stroke-width="0" stroke="none" height="400" width="600" y="0" x="0"></rect><g><rect fill="#ffffff" fill-opacity="0" stroke-width="0" stroke="none" height="68" width="88" y="77" x="499"></rect><g><rect fill="#ffffff" fill-opacity="0" stroke-width="0" stroke="none" height="30" width="88" y="77" x="499"></rect><g><text fill="#222222" stroke-width="0" stroke="none" font-size="13" font-family="Arial" y="88.05" x="517" text-anchor="start">Avg</text><text fill="#222222" stroke-width="0" stroke="none" font-size="13" font-family="Arial" y="105.05" x="517" text-anchor="start">Correlation</text></g><rect fill="#3366cc" stroke-width="0" stroke="none" height="13" width="13" y="77" x="499"></rect></g><g><rect fill="#ffffff" fill-opacity="0" stroke-width="0" stroke="none" height="30" width="88" y="115" x="499"></rect><g><text fill="#222222" stroke-width="0" stroke="none" font-size="13" font-family="Arial" y="126.05" x="517" text-anchor="start">Avg</text><text fill="#222222" stroke-width="0" stroke="none" font-size="13" font-family="Arial" y="143.05" x="517" text-anchor="start">Certainty</text></g><rect fill="#dc3912" stroke-width="0" stroke="none" height="13" width="13" y="115" x="499"></rect></g></g><g><rect fill="#ffffff" fill-opacity="0" stroke-width="0" stroke="none" height="247" width="371" y="77" x="115"></rect><g clip-path="url(https://savedbythegoog.appspot.com/retrieve_cache?unique_id=0c309cde26dbcbf22323447da270be0fd6739dec#_ABSTRACT_RENDERER_ID_0)"><g><rect fill="#cccccc" stroke-width="0" stroke="none" height="1" width="371" y="323" x="115"></rect><rect fill="#cccccc" stroke-width="0" stroke="none" height="1" width="371" y="262" x="115"></rect><rect fill="#cccccc" stroke-width="0" stroke="none" height="1" width="371" y="200" x="115"></rect><rect fill="#cccccc" stroke-width="0" stroke="none" height="1" width="371" y="138" x="115"></rect><rect fill="#cccccc" stroke-width="0" stroke="none" height="1" width="371" y="77" x="115"></rect></g><g><rect fill="#333333" stroke-width="0" stroke="none" height="1" width="371" y="323" x="115"></rect></g><g><path fill="none" fill-opacity="1" stroke-width="2" stroke="#3366cc" d="M146.33333333333334,222.64C146.33333333333334,222.64,187.44444444444446,184.30499999999998,208,168.52C228.55555555555554,152.73500000000004,249.11111111111111,134.07999999999996,269.66666666666663,127.92999999999995C290.22222222222223,121.77999999999994,310.77777777777777,129.77499999999998,331.3333333333333,131.61999999999998C351.8888888888889,133.46499999999997,372.4444444444444,138.58999999999995,393,138.99999999999997C413.55555555555554,139.41,454.66666666666663,134.07999999999996,454.66666666666663,134.07999999999996"></path><path fill="none" fill-opacity="1" stroke-width="2" stroke="#dc3912" d="M146.33333333333334,323.5C146.33333333333334,323.5,187.44444444444446,267.02250000000004,208,242.32C228.55555555555554,217.6175,249.11111111111111,185.2275,269.66666666666663,175.285C290.22222222222223,165.3425,310.77777777777777,182.46000000000004,331.3333333333333,182.66500000000002C351.8888888888889,182.86999999999998,372.4444444444444,174.87499999999997,393,176.51500000000001C413.55555555555554,178.15500000000003,454.66666666666663,192.50500000000002,454.66666666666663,192.50500000000002"></path></g></g><g></g><g><g><text fill="#222222" stroke-width="0" stroke="none" font-size="13" font-family="Arial" y="343.05" x="146.33333333333334" text-anchor="middle">1</text></g><g><text fill="#222222" stroke-width="0" stroke="none" font-size="13" font-family="Arial" y="343.05" x="208" text-anchor="middle">2</text></g><g><text fill="#222222" stroke-width="0" stroke="none" font-size="13" font-family="Arial" y="343.05" x="269.66666666666663" text-anchor="middle">5</text></g><g><text fill="#222222" stroke-width="0" stroke="none" font-size="13" font-family="Arial" y="343.05" x="331.3333333333333" text-anchor="middle">10</text></g><g><text fill="#222222" stroke-width="0" stroke="none" font-size="13" font-family="Arial" y="343.05" x="393" text-anchor="middle">15</text></g><g><text fill="#222222" stroke-width="0" stroke="none" font-size="13" font-family="Arial" y="343.05" x="454.66666666666663" text-anchor="middle">20</text></g><g><text fill="#444444" stroke-width="0" stroke="none" font-size="13" font-family="Arial" y="328.05" x="102" text-anchor="end">0.6</text></g><g><text fill="#444444" stroke-width="0" stroke="none" font-size="13" font-family="Arial" y="266.55" x="102" text-anchor="end">0.7</text></g><g><text fill="#444444" stroke-width="0" stroke="none" font-size="13" font-family="Arial" y="205.04999999999995" x="102" text-anchor="end">0.8</text></g><g><text fill="#444444" stroke-width="0" stroke="none" font-size="13" font-family="Arial" y="143.54999999999998" x="102" text-anchor="end">0.9</text></g><g><text fill="#444444" stroke-width="0" stroke="none" font-size="13" font-family="Arial" y="82.05" x="102" text-anchor="end">1.0</text></g></g></g><g></g></svg>
