# Blender v2.70 (sub 0) OBJ File: 'skeletal.blend'
# www.blender.org
mtllib skeletal_000037.mtl
o Cube
v 0.979193 -0.008755 -1.000000
v 0.980830 -0.008067 1.000000
v -1.019489 0.011393 1.000000
v -1.017955 0.010496 -1.000000
v 0.746866 1.952107 -0.750000
v 0.746866 1.952128 0.750001
v -0.762127 2.060450 0.750000
v -0.765523 2.063223 -0.750000
v 0.741494 3.859237 -0.500000
v 0.741993 3.861201 0.500000
v -0.217637 4.116517 0.500000
v -0.217114 4.118571 -0.500000
v 0.980525 5.848900 -0.000000
v 0.980525 5.848900 -0.000000
v 0.980525 5.848900 -0.000000
v 0.980525 5.848900 0.000000
vt 0.000000 0.000000
vt 1.000000 0.000000
vt 1.000000 1.000000
vt 0.000000 1.000000
vn -0.009728 -0.999953 0.000352
vn -0.966594 0.256298 0.002662
vn 0.992952 0.118516 -0.000002
vn 0.008616 0.120038 0.992732
vn -0.992164 0.124918 0.002477
vn 0.001164 0.120755 -0.992682
vn -0.822354 0.568975 0.000738
vn 0.009321 0.129863 0.991488
vn 0.008703 0.118451 -0.992922
vn 0.999996 0.002817 -0.000000
vn 0.000000 0.000000 1.000000
vn 0.062885 0.236361 0.969628
vn 0.063847 0.236002 -0.969653
vn 0.992869 -0.119214 -0.000262
vn -0.009639 -0.999953 0.000441
vn -0.966199 0.257799 0.000024
vn 0.993041 0.117766 -0.000853
vn 0.001232 0.126658 0.991946
vn -0.992511 0.122153 -0.000816
vn 0.009372 0.127558 -0.991787
vn 0.707107 -0.707107 0.000000
vn 0.030014 0.112812 0.993163
vn 0.035167 0.129992 -0.990891
vn 0.999997 0.002487 -0.000505
vn 0.894427 -0.447214 0.000000
vn -0.894427 0.447214 0.000000
vn -1.000000 0.000000 0.000000
usemtl Material
s off
f 1/1/1 2/2/1 3/3/1
f 8/1/2 7/2/2 11/3/2
f 5/2/3 6/3/3 2/4/3
f 6/2/4 7/3/4 3/4/4
f 3/1/5 7/2/5 8/3/5
f 1/2/6 4/3/6 8/4/6
f 12/1/7 11/2/7 15/3/7
f 7/1/8 6/2/8 10/3/8
f 5/1/9 8/2/9 12/3/9
f 6/1/10 5/2/10 9/3/10
f 13/1/11 16/2/11 15/3/11
f 11/1/12 10/2/12 14/3/12
f 9/1/13 12/2/13 16/3/13
f 10/1/14 9/2/14 13/3/14
f 4/4/15 1/1/15 3/3/15
f 12/4/16 8/1/16 11/3/16
f 1/1/17 5/2/17 2/4/17
f 2/1/18 6/2/18 3/4/18
f 4/4/19 3/1/19 8/3/19
f 5/1/20 1/2/20 8/4/20
f 16/4/21 12/1/21 15/3/21
f 11/4/22 7/1/22 10/3/22
f 9/4/23 5/1/23 12/3/23
f 10/4/24 6/1/24 9/3/24
f 14/4/11 13/1/11 15/3/11
f 15/4/25 11/1/25 14/3/25
f 13/4/26 9/1/26 16/3/26
f 14/4/27 10/1/27 13/3/27
