# Blender v2.70 (sub 0) OBJ File: 'skeletal.blend'
# www.blender.org
mtllib skeletal_000010.mtl
o Cube
v 0.844048 0.000691 -1.000000
v 0.856316 0.000637 1.000000
v -1.093018 0.125177 1.000000
v -1.085700 0.115329 -1.000000
v 0.600401 1.704088 -0.750000
v 0.600465 1.704217 0.750001
v -0.563436 2.393988 0.750000
v -0.555276 2.415680 -0.750000
v 1.610203 2.779186 -0.500000
v 1.620159 2.779318 0.500000
v 1.661027 3.593007 0.499999
v 1.671446 3.593145 -0.500000
v 3.252017 2.043101 -0.000000
v 3.252017 2.043101 -0.000000
v 3.252017 2.043101 -0.000000
v 3.252017 2.043101 -0.000000
vt 0.000000 0.000000
vt 1.000000 0.000000
vt 1.000000 1.000000
vt 0.000000 1.000000
vn -0.063758 -0.997965 0.000364
vn -0.473568 0.880699 0.010160
vn 0.988911 0.148511 -0.000055
vn 0.057007 0.096193 0.993729
vn -0.973870 0.227097 -0.002014
vn 0.006333 0.106598 -0.994282
vn 0.698968 0.715115 0.007381
vn 0.086929 0.146683 0.985357
vn 0.060004 0.097450 -0.993430
vn 0.728891 -0.684629 0.000028
vn 0.000000 0.000000 1.000000
vn 0.286976 -0.014412 0.957829
vn 0.282531 -0.021259 -0.959023
vn -0.410164 -0.912002 0.004204
vn -0.059300 -0.998229 0.004698
vn -0.467036 0.884226 -0.004745
vn 0.989781 0.142465 -0.006068
vn 0.009364 0.146565 0.989157
vn -0.974309 0.225168 -0.004674
vn 0.097373 0.158140 -0.982604
vn -1.000000 0.000000 0.000000
vn 0.114748 -0.005762 0.993378
vn 0.259836 -0.019551 -0.965455
vn 0.724710 -0.689017 -0.007124
vn -0.242536 -0.970143 0.000000
vn 1.000000 0.000000 0.000000
vn 0.242536 0.970143 0.000000
usemtl Material
s off
f 1/1/1 2/2/1 3/3/1
f 8/1/2 7/2/2 11/3/2
f 5/2/3 6/3/3 2/4/3
f 6/2/4 7/3/4 3/4/4
f 3/1/5 7/2/5 8/3/5
f 1/2/6 4/3/6 8/4/6
f 12/1/7 11/2/7 15/3/7
f 7/1/8 6/2/8 10/3/8
f 5/1/9 8/2/9 12/3/9
f 6/1/10 5/2/10 9/3/10
f 13/1/11 16/2/11 15/3/11
f 11/1/12 10/2/12 14/3/12
f 9/1/13 12/2/13 16/3/13
f 10/1/14 9/2/14 13/3/14
f 4/4/15 1/1/15 3/3/15
f 12/4/16 8/1/16 11/3/16
f 1/1/17 5/2/17 2/4/17
f 2/1/18 6/2/18 3/4/18
f 4/4/19 3/1/19 8/3/19
f 5/1/20 1/2/20 8/4/20
f 16/4/21 12/1/21 15/3/21
f 11/4/22 7/1/22 10/3/22
f 9/4/23 5/1/23 12/3/23
f 10/4/24 6/1/24 9/3/24
f 14/4/11 13/1/11 15/3/11
f 15/4/25 11/1/25 14/3/25
f 13/4/26 9/1/26 16/3/26
f 14/4/27 10/1/27 13/3/27
