# Blender v2.70 (sub 0) OBJ File: 'skeletal.blend'
# www.blender.org
mtllib skeletal_000019.mtl
o Cube
v 0.766987 0.079608 -1.000000
v 0.785318 0.073345 1.000000
v -1.076122 0.234175 1.000000
v -1.070133 0.215753 -1.000000
v 0.377056 1.632581 -0.749999
v 0.377217 1.632740 0.750001
v -0.287589 2.431804 0.750000
v -0.267843 2.445973 -0.750000
v 1.755817 1.639959 -0.500000
v 1.763751 1.634265 0.500000
v 2.283635 2.271708 0.499999
v 2.291936 2.265749 -0.500001
v 2.667911 0.085053 -0.000001
v 2.667911 0.085053 -0.000001
v 2.667911 0.085053 -0.000001
v 2.667911 0.085053 -0.000001
vt 0.000000 0.000000
vt 1.000000 0.000000
vt 1.000000 1.000000
vt 0.000000 1.000000
vn -0.086080 -0.996285 -0.002331
vn 0.063134 0.997952 0.010258
vn 0.967425 0.253158 -0.000131
vn 0.094802 0.078875 0.992367
vn -0.941536 0.336785 -0.009213
vn 0.008044 0.108537 -0.994060
vn 0.985159 0.171492 0.007156
vn 0.175390 0.145922 0.973625
vn 0.102549 0.081305 -0.991400
vn 0.005332 -0.999986 0.000106
vn 0.000000 0.000000 1.000000
vn 0.221079 -0.180306 0.958444
vn 0.213786 -0.183153 -0.959558
vn -0.863104 -0.505011 0.003972
vn -0.073902 -0.997225 0.008964
vn 0.070752 0.997480 -0.005357
vn 0.969553 0.244749 -0.008120
vn 0.013984 0.161848 0.986717
vn -0.940738 0.339083 -0.005940
vn 0.277839 0.220284 -0.935029
vn -1.000000 0.000000 0.000000
vn 0.091879 -0.074933 0.992947
vn 0.177132 -0.151752 -0.972417
vn 0.000074 -0.999984 -0.005694
vn 1.000000 0.000000 0.000000
usemtl Material
s off
f 1/1/1 2/2/1 3/3/1
f 8/1/2 7/2/2 11/3/2
f 5/2/3 6/3/3 2/4/3
f 6/2/4 7/3/4 3/4/4
f 3/1/5 7/2/5 8/3/5
f 1/2/6 4/3/6 8/4/6
f 12/1/7 11/2/7 15/3/7
f 7/1/8 6/2/8 10/3/8
f 5/1/9 8/2/9 12/3/9
f 6/1/10 5/2/10 9/3/10
f 13/1/11 16/2/11 15/3/11
f 11/1/12 10/2/12 14/3/12
f 9/1/13 12/2/13 16/3/13
f 10/1/14 9/2/14 13/3/14
f 4/4/15 1/1/15 3/3/15
f 12/4/16 8/1/16 11/3/16
f 1/1/17 5/2/17 2/4/17
f 2/1/18 6/2/18 3/4/18
f 4/4/19 3/1/19 8/3/19
f 5/1/20 1/2/20 8/4/20
f 16/4/21 12/1/21 15/3/21
f 11/4/22 7/1/22 10/3/22
f 9/4/23 5/1/23 12/3/23
f 10/4/24 6/1/24 9/3/24
f 14/4/11 13/1/11 15/3/11
f 15/4/21 11/1/21 14/3/21
f 13/4/25 9/1/25 16/3/25
f 14/4/25 10/1/25 13/3/25
