# Blender v2.70 (sub 0) OBJ File: 'skeletal.blend'
# www.blender.org
mtllib skeletal_000032.mtl
o Cube
v 0.875059 -0.011548 -1.000000
v 0.884888 -0.010640 1.000000
v -1.084203 0.093024 1.000000
v -1.077579 0.085706 -1.000000
v 0.653163 1.751423 -0.750000
v 0.653204 1.751531 0.750001
v -0.640942 2.342960 0.750000
v -0.638264 2.363851 -0.750000
v 1.455695 3.064351 -0.500000
v 1.464600 3.066711 0.500000
v 1.294982 3.893387 0.499999
v 1.304302 3.895856 -0.500000
v 3.257746 2.863236 -0.000000
v 3.257746 2.863236 -0.000000
v 3.257746 2.863236 -0.000000
v 3.257746 2.863236 -0.000000
vt 0.000000 0.000000
vt 1.000000 0.000000
vt 1.000000 1.000000
vt 0.000000 1.000000
vn -0.052573 -0.998617 0.000712
vn -0.624311 0.781115 0.009764
vn 0.991468 0.130349 -0.000037
vn 0.046295 0.101302 0.993778
vn -0.981120 0.193396 0.000942
vn 0.005382 0.108057 -0.994130
vn 0.466021 0.884749 0.006528
vn 0.066881 0.146349 0.986969
vn 0.048023 0.101264 -0.993700
vn 0.853226 -0.521541 0.000014
vn 0.000000 0.000000 1.000000
vn 0.274085 0.056238 0.960060
vn 0.272164 0.049553 -0.960974
vn -0.111829 -0.993722 0.003342
vn -0.049745 -0.998756 0.003490
vn -0.618938 0.785431 -0.003829
vn 0.992073 0.125567 -0.004933
vn 0.007445 0.141419 0.989922
vn -0.981821 0.189766 -0.003947
vn 0.070542 0.148750 -0.986356
vn -1.000000 0.000000 0.000000
vn 0.110207 0.022613 0.993651
vn 0.233182 0.042455 -0.971506
vn 0.850509 -0.525923 -0.006332
vn -0.242536 -0.970143 0.000000
vn 0.062378 0.998053 0.000000
usemtl Material
s off
f 1/1/1 2/2/1 3/3/1
f 8/1/2 7/2/2 11/3/2
f 5/2/3 6/3/3 2/4/3
f 6/2/4 7/3/4 3/4/4
f 3/1/5 7/2/5 8/3/5
f 1/2/6 4/3/6 8/4/6
f 12/1/7 11/2/7 15/3/7
f 7/1/8 6/2/8 10/3/8
f 5/1/9 8/2/9 12/3/9
f 6/1/10 5/2/10 9/3/10
f 13/1/11 16/2/11 15/3/11
f 11/1/12 10/2/12 14/3/12
f 9/1/13 12/2/13 16/3/13
f 10/1/14 9/2/14 13/3/14
f 4/4/15 1/1/15 3/3/15
f 12/4/16 8/1/16 11/3/16
f 1/1/17 5/2/17 2/4/17
f 2/1/18 6/2/18 3/4/18
f 4/4/19 3/1/19 8/3/19
f 5/1/20 1/2/20 8/4/20
f 16/4/21 12/1/21 15/3/21
f 11/4/22 7/1/22 10/3/22
f 9/4/23 5/1/23 12/3/23
f 10/4/24 6/1/24 9/3/24
f 14/4/11 13/1/11 15/3/11
f 15/4/25 11/1/25 14/3/25
f 13/4/26 9/1/26 16/3/26
f 14/4/26 10/1/26 13/3/26
