# Blender v2.70 (sub 0) OBJ File: 'skeletal.blend'
# www.blender.org
mtllib skeletal_000031.mtl
o Cube
v 0.857732 -0.005567 -1.000000
v 0.868924 -0.005129 1.000000
v -1.089815 0.110474 1.000000
v -1.082749 0.101783 -1.000000
v 0.625314 1.724160 -0.750000
v 0.625368 1.724280 0.750001
v -0.598530 2.374200 0.750000
v -0.592624 2.395964 -0.750000
v 1.542097 2.913078 -0.500000
v 1.551811 2.914184 0.500000
v 1.509419 3.735207 0.499999
v 1.519585 3.736363 -0.500000
v 3.261159 2.371094 -0.000000
v 3.261159 2.371094 -0.000000
v 3.261159 2.371094 -0.000000
v 3.261159 2.371094 -0.000000
vt 0.000000 0.000000
vt 1.000000 0.000000
vt 1.000000 1.000000
vt 0.000000 1.000000
vn -0.058917 -0.998263 0.000548
vn -0.541549 0.840609 0.010064
vn 0.990229 0.139449 -0.000046
vn 0.052257 0.098409 0.993773
vn -0.977268 0.212006 -0.000772
vn 0.005924 0.107077 -0.994233
vn 0.615660 0.787979 0.007169
vn 0.077839 0.146583 0.986131
vn 0.054685 0.099139 -0.993570
vn 0.791904 -0.610646 0.000021
vn 0.000000 0.000000 1.000000
vn 0.285019 0.014717 0.958409
vn 0.281511 0.007697 -0.959527
vn -0.301740 -0.953382 0.003985
vn -0.055237 -0.998465 0.004144
vn -0.535431 0.844567 -0.004466
vn 0.990971 0.133959 -0.005575
vn 0.008513 0.144240 0.989506
vn -0.977825 0.209377 -0.004365
vn 0.084768 0.153678 -0.984478
vn -0.447214 -0.894427 0.000000
vn 0.114022 0.005888 0.993461
vn 0.254665 0.006963 -0.967004
vn 0.788313 -0.615235 -0.006977
vn 0.124035 0.992278 0.000000
usemtl Material
s off
f 1/1/1 2/2/1 3/3/1
f 8/1/2 7/2/2 11/3/2
f 5/2/3 6/3/3 2/4/3
f 6/2/4 7/3/4 3/4/4
f 3/1/5 7/2/5 8/3/5
f 1/2/6 4/3/6 8/4/6
f 12/1/7 11/2/7 15/3/7
f 7/1/8 6/2/8 10/3/8
f 5/1/9 8/2/9 12/3/9
f 6/1/10 5/2/10 9/3/10
f 13/1/11 16/2/11 15/3/11
f 11/1/12 10/2/12 14/3/12
f 9/1/13 12/2/13 16/3/13
f 10/1/14 9/2/14 13/3/14
f 4/4/15 1/1/15 3/3/15
f 12/4/16 8/1/16 11/3/16
f 1/1/17 5/2/17 2/4/17
f 2/1/18 6/2/18 3/4/18
f 4/4/19 3/1/19 8/3/19
f 5/1/20 1/2/20 8/4/20
f 16/4/21 12/1/21 15/3/21
f 11/4/22 7/1/22 10/3/22
f 9/4/23 5/1/23 12/3/23
f 10/4/24 6/1/24 9/3/24
f 14/4/11 13/1/11 15/3/11
f 15/4/21 11/1/21 14/3/21
f 13/4/25 9/1/25 16/3/25
f 14/4/25 10/1/25 13/3/25
