# Blender v2.70 (sub 0) OBJ File: 'skeletal.blend'
# www.blender.org
mtllib skeletal_000009.mtl
o Cube
v 0.858991 -0.006073 -1.000000
v 0.870084 -0.005595 1.000000
v -1.089463 0.109164 1.000000
v -1.082425 0.100576 -1.000000
v 0.627472 1.726074 -0.750000
v 0.627525 1.726193 0.750001
v -0.601823 2.372059 0.750000
v -0.596169 2.393773 -0.750000
v 1.536267 2.924427 -0.500000
v 1.545925 2.925634 0.500000
v 1.494132 3.747854 0.499999
v 1.504240 3.749116 -0.500000
v 3.263860 2.407550 -0.000000
v 3.263860 2.407550 -0.000000
v 3.263860 2.407550 -0.000000
v 3.263860 2.407550 -0.000000
vt 0.000000 0.000000
vt 1.000000 0.000000
vt 1.000000 1.000000
vt 0.000000 1.000000
vn -0.058464 -0.998289 0.000563
vn -0.547882 0.836496 0.010044
vn 0.990334 0.138703 -0.000045
vn 0.051814 0.098625 0.993775
vn -0.977574 0.210591 -0.000637
vn 0.005886 0.107141 -0.994226
vn 0.605006 0.796189 0.007119
vn 0.077012 0.146586 0.986196
vn 0.054185 0.099300 -0.993581
vn 0.796785 -0.604262 0.000020
vn 0.000000 0.000000 1.000000
vn 0.284384 0.017914 0.958543
vn 0.281005 0.010912 -0.959644
vn -0.287678 -0.957719 0.003935
vn -0.054850 -0.998486 0.004094
vn -0.541818 0.840484 -0.004416
vn 0.991065 0.133264 -0.005529
vn 0.008435 0.144030 0.989537
vn -0.978144 0.207881 -0.004335
vn 0.083647 0.153292 -0.984634
vn -0.242536 -0.970143 0.000000
vn 0.113794 0.007169 0.993478
vn 0.253152 0.009831 -0.967377
vn 0.793264 -0.608838 -0.006927
vn 0.124035 0.992278 0.000000
usemtl Material
s off
f 1/1/1 2/2/1 3/3/1
f 8/1/2 7/2/2 11/3/2
f 5/2/3 6/3/3 2/4/3
f 6/2/4 7/3/4 3/4/4
f 3/1/5 7/2/5 8/3/5
f 1/2/6 4/3/6 8/4/6
f 12/1/7 11/2/7 15/3/7
f 7/1/8 6/2/8 10/3/8
f 5/1/9 8/2/9 12/3/9
f 6/1/10 5/2/10 9/3/10
f 13/1/11 16/2/11 15/3/11
f 11/1/12 10/2/12 14/3/12
f 9/1/13 12/2/13 16/3/13
f 10/1/14 9/2/14 13/3/14
f 4/4/15 1/1/15 3/3/15
f 12/4/16 8/1/16 11/3/16
f 1/1/17 5/2/17 2/4/17
f 2/1/18 6/2/18 3/4/18
f 4/4/19 3/1/19 8/3/19
f 5/1/20 1/2/20 8/4/20
f 16/4/21 12/1/21 15/3/21
f 11/4/22 7/1/22 10/3/22
f 9/4/23 5/1/23 12/3/23
f 10/4/24 6/1/24 9/3/24
f 14/4/11 13/1/11 15/3/11
f 15/4/21 11/1/21 14/3/21
f 13/4/25 9/1/25 16/3/25
f 14/4/25 10/1/25 13/3/25
