# Blender v2.70 (sub 0) OBJ File: 'skeletal.blend'
# www.blender.org
mtllib skeletal_000017.mtl
o Cube
v 0.772425 0.069229 -1.000000
v 0.790328 0.063783 1.000000
v -1.081162 0.223598 1.000000
v -1.074776 0.206008 -1.000000
v 0.401963 1.633054 -0.749999
v 0.402113 1.633213 0.750001
v -0.316641 2.436303 0.750000
v -0.297807 2.451578 -0.750000
v 1.775680 1.760904 -0.500000
v 1.783998 1.755722 0.500000
v 2.260558 2.424460 0.499999
v 2.269261 2.419036 -0.500001
v 2.782470 0.266323 -0.000001
v 2.782470 0.266323 -0.000001
v 2.782470 0.266323 -0.000001
v 2.782470 0.266323 -0.000001
vt 0.000000 0.000000
vt 1.000000 0.000000
vt 1.000000 1.000000
vt 0.000000 1.000000
vn -0.085085 -0.996372 -0.001952
vn 0.005590 0.999932 0.010253
vn 0.970747 0.240105 -0.000123
vn 0.090406 0.080913 0.992613
vn -0.945436 0.325695 -0.008554
vn 0.007991 0.107912 -0.994128
vn 0.972336 0.233477 0.007196
vn 0.163528 0.146356 0.975622
vn 0.097638 0.083472 -0.991715
vn 0.092651 -0.995699 0.000096
vn 0.000000 0.000000 1.000000
vn 0.232623 -0.165772 0.958335
vn 0.225470 -0.169098 -0.959463
vn -0.829991 -0.557762 0.004013
vn -0.073841 -0.997234 0.008535
vn 0.013192 0.999899 -0.005309
vn 0.972747 0.231730 -0.008077
vn 0.013714 0.160603 0.986924
vn -0.944811 0.327562 -0.005897
vn 0.244881 0.209352 -0.946681
vn -1.000000 0.000000 0.000000
vn 0.096014 -0.068421 0.993026
vn 0.190043 -0.142528 -0.971375
vn 0.087249 -0.996169 -0.005887
vn 1.000000 0.000000 0.000000
vn 0.242536 -0.970143 0.000000
usemtl Material
s off
f 1/1/1 2/2/1 3/3/1
f 8/1/2 7/2/2 11/3/2
f 5/2/3 6/3/3 2/4/3
f 6/2/4 7/3/4 3/4/4
f 3/1/5 7/2/5 8/3/5
f 1/2/6 4/3/6 8/4/6
f 12/1/7 11/2/7 15/3/7
f 7/1/8 6/2/8 10/3/8
f 5/1/9 8/2/9 12/3/9
f 6/1/10 5/2/10 9/3/10
f 13/1/11 16/2/11 15/3/11
f 11/1/12 10/2/12 14/3/12
f 9/1/13 12/2/13 16/3/13
f 10/1/14 9/2/14 13/3/14
f 4/4/15 1/1/15 3/3/15
f 12/4/16 8/1/16 11/3/16
f 1/1/17 5/2/17 2/4/17
f 2/1/18 6/2/18 3/4/18
f 4/4/19 3/1/19 8/3/19
f 5/1/20 1/2/20 8/4/20
f 16/4/21 12/1/21 15/3/21
f 11/4/22 7/1/22 10/3/22
f 9/4/23 5/1/23 12/3/23
f 10/4/24 6/1/24 9/3/24
f 14/4/11 13/1/11 15/3/11
f 15/4/21 11/1/21 14/3/21
f 13/4/25 9/1/25 16/3/25
f 14/4/26 10/1/26 13/3/26
