# Blender v2.70 (sub 0) OBJ File: 'skeletal.blend'
# www.blender.org
mtllib skeletal_000008.mtl
o Cube
v 0.878579 -0.012518 -1.000000
v 0.888131 -0.011533 1.000000
v -1.082867 0.089626 1.000000
v -1.076347 0.082575 -1.000000
v 0.658354 1.757196 -0.750000
v 0.658392 1.757301 0.750001
v -0.649296 2.335538 0.750000
v -0.647319 2.356064 -0.750000
v 1.439000 3.093132 -0.500000
v 1.447648 3.095739 0.500000
v 1.247549 3.922347 0.499999
v 1.256600 3.925073 -0.500000
v 3.252378 2.979829 -0.000000
v 3.252378 2.979829 -0.000000
v 3.252378 2.979829 -0.000000
v 3.252378 2.979829 -0.000000
vt 0.000000 0.000000
vt 1.000000 0.000000
vt 1.000000 1.000000
vt 0.000000 1.000000
vn -0.051256 -0.998685 0.000737
vn -0.640861 0.767596 0.009659
vn 0.991671 0.128795 -0.000035
vn 0.045067 0.101920 0.993771
vn -0.981843 0.189688 0.001302
vn 0.005269 0.108320 -0.994102
vn 0.426737 0.904354 0.006328
vn 0.064668 0.146248 0.987132
vn 0.046656 0.101720 -0.993718
vn 0.863398 -0.504524 0.000013
vn 0.000000 0.000000 1.000000
vn 0.270322 0.065438 0.960544
vn 0.268767 0.058926 -0.961401
vn -0.063225 -0.997994 0.003147
vn -0.048585 -0.998813 0.003363
vn -0.635677 0.771946 -0.003649
vn 0.992251 0.124155 -0.004800
vn 0.007230 0.140862 0.990003
vn -0.982572 0.185844 -0.003858
vn 0.067802 0.147823 -0.986687
vn -0.242536 -0.970143 0.000000
vn 0.108912 0.026365 0.993702
vn 0.226525 0.049664 -0.972738
vn 0.860872 -0.508785 -0.006119
vn 0.015623 0.999878 0.000000
usemtl Material
s off
f 1/1/1 2/2/1 3/3/1
f 8/1/2 7/2/2 11/3/2
f 5/2/3 6/3/3 2/4/3
f 6/2/4 7/3/4 3/4/4
f 3/1/5 7/2/5 8/3/5
f 1/2/6 4/3/6 8/4/6
f 12/1/7 11/2/7 15/3/7
f 7/1/8 6/2/8 10/3/8
f 5/1/9 8/2/9 12/3/9
f 6/1/10 5/2/10 9/3/10
f 13/1/11 16/2/11 15/3/11
f 11/1/12 10/2/12 14/3/12
f 9/1/13 12/2/13 16/3/13
f 10/1/14 9/2/14 13/3/14
f 4/4/15 1/1/15 3/3/15
f 12/4/16 8/1/16 11/3/16
f 1/1/17 5/2/17 2/4/17
f 2/1/18 6/2/18 3/4/18
f 4/4/19 3/1/19 8/3/19
f 5/1/20 1/2/20 8/4/20
f 16/4/21 12/1/21 15/3/21
f 11/4/22 7/1/22 10/3/22
f 9/4/23 5/1/23 12/3/23
f 10/4/24 6/1/24 9/3/24
f 14/4/11 13/1/11 15/3/11
f 15/4/21 11/1/21 14/3/21
f 13/4/25 9/1/25 16/3/25
f 14/4/25 10/1/25 13/3/25
