# Blender v2.70 (sub 0) OBJ File: 'skeletal.blend'
# www.blender.org
mtllib skeletal_000016.mtl
o Cube
v 0.777848 0.060319 -1.000000
v 0.795324 0.055574 1.000000
v -1.085037 0.213913 1.000000
v -1.078346 0.197085 -1.000000
v 0.424065 1.634893 -0.749999
v 0.424205 1.635052 0.750001
v -0.342743 2.438662 0.750000
v -0.324789 2.454871 -0.750000
v 1.786416 1.869373 -0.500000
v 1.795047 1.864672 0.500000
v 2.231364 2.558996 0.499999
v 2.240395 2.554075 -0.500001
v 2.874844 0.433783 -0.000001
v 2.874844 0.433783 -0.000001
v 2.874844 0.433783 -0.000001
v 2.874844 0.433783 -0.000000
vt 0.000000 0.000000
vt 1.000000 0.000000
vt 1.000000 1.000000
vt 0.000000 1.000000
vn -0.083910 -0.996472 -0.001631
vn -0.045701 0.998903 0.010248
vn 0.973493 0.228717 -0.000115
vn 0.086615 0.082665 0.992806
vn -0.948830 0.315687 -0.007945
vn 0.007917 0.107441 -0.994180
vn 0.957535 0.288226 0.007229
vn 0.153647 0.146639 0.977185
vn 0.093378 0.085278 -0.991972
vn 0.169604 -0.985512 0.000088
vn 0.000000 0.000000 1.000000
vn 0.242108 -0.152141 0.958247
vn 0.235112 -0.155887 -0.959386
vn -0.797534 -0.603261 0.004047
vn -0.073479 -0.997263 0.008145
vn -0.038132 0.999259 -0.005263
vn 0.975372 0.220421 -0.008000
vn 0.013422 0.159395 0.987124
vn -0.948352 0.317168 -0.005841
vn 0.220102 0.201009 -0.954542
vn -1.000000 0.000000 0.000000
vn 0.099369 -0.062443 0.993089
vn 0.201029 -0.133289 -0.970475
vn 0.164124 -0.986421 -0.006053
vn -0.447214 0.894427 0.000000
vn 1.000000 0.000000 0.000000
usemtl Material
s off
f 1/1/1 2/2/1 3/3/1
f 8/1/2 7/2/2 11/3/2
f 5/2/3 6/3/3 2/4/3
f 6/2/4 7/3/4 3/4/4
f 3/1/5 7/2/5 8/3/5
f 1/2/6 4/3/6 8/4/6
f 12/1/7 11/2/7 15/3/7
f 7/1/8 6/2/8 10/3/8
f 5/1/9 8/2/9 12/3/9
f 6/1/10 5/2/10 9/3/10
f 13/1/11 16/2/11 15/3/11
f 11/1/12 10/2/12 14/3/12
f 9/1/13 12/2/13 16/3/13
f 10/1/14 9/2/14 13/3/14
f 4/4/15 1/1/15 3/3/15
f 12/4/16 8/1/16 11/3/16
f 1/1/17 5/2/17 2/4/17
f 2/1/18 6/2/18 3/4/18
f 4/4/19 3/1/19 8/3/19
f 5/1/20 1/2/20 8/4/20
f 16/4/21 12/1/21 15/3/21
f 11/4/22 7/1/22 10/3/22
f 9/4/23 5/1/23 12/3/23
f 10/4/24 6/1/24 9/3/24
f 14/4/11 13/1/11 15/3/11
f 15/4/25 11/1/25 14/3/25
f 13/4/26 9/1/26 16/3/26
f 14/4/26 10/1/26 13/3/26
