# Blender v2.70 (sub 0) OBJ File: 'skeletal.blend'
# www.blender.org
mtllib skeletal_000021.mtl
o Cube
v 0.767014 0.079551 -1.000000
v 0.785343 0.073293 1.000000
v -1.076151 0.234119 1.000000
v -1.070160 0.215701 -1.000000
v 0.377191 1.632579 -0.749999
v 0.377352 1.632738 0.750001
v -0.287747 2.431833 0.750000
v -0.268006 2.446008 -0.750000
v 1.755949 1.640602 -0.500000
v 1.763884 1.634912 0.500000
v 2.283535 2.272545 0.499999
v 2.291839 2.266588 -0.500001
v 2.668612 0.086030 -0.000001
v 2.668612 0.086030 -0.000001
v 2.668612 0.086030 -0.000001
v 2.668612 0.086030 -0.000001
vt 0.000000 0.000000
vt 1.000000 0.000000
vt 1.000000 1.000000
vt 0.000000 1.000000
vn -0.086076 -0.996286 -0.002329
vn 0.062821 0.997972 0.010257
vn 0.967443 0.253087 -0.000131
vn 0.094778 0.078886 0.992368
vn -0.941558 0.336725 -0.009209
vn 0.008043 0.108534 -0.994060
vn 0.985097 0.171853 0.007156
vn 0.175324 0.145926 0.973636
vn 0.102522 0.081317 -0.991401
vn 0.005800 -0.999983 0.000105
vn 0.000000 0.000000 1.000000
vn 0.221145 -0.180225 0.958444
vn 0.213853 -0.183075 -0.959557
vn -0.862919 -0.505327 0.003972
vn -0.073903 -0.997225 0.008962
vn 0.070438 0.997502 -0.005356
vn 0.969571 0.244678 -0.008120
vn 0.013982 0.161842 0.986718
vn -0.940760 0.339020 -0.005940
vn 0.277643 0.220220 -0.935103
vn -1.000000 0.000000 0.000000
vn 0.091903 -0.074896 0.992947
vn 0.177203 -0.151700 -0.972413
vn 0.000541 -0.999984 -0.005695
vn 1.000000 0.000000 0.000000
usemtl Material
s off
f 1/1/1 2/2/1 3/3/1
f 8/1/2 7/2/2 11/3/2
f 5/2/3 6/3/3 2/4/3
f 6/2/4 7/3/4 3/4/4
f 3/1/5 7/2/5 8/3/5
f 1/2/6 4/3/6 8/4/6
f 12/1/7 11/2/7 15/3/7
f 7/1/8 6/2/8 10/3/8
f 5/1/9 8/2/9 12/3/9
f 6/1/10 5/2/10 9/3/10
f 13/1/11 16/2/11 15/3/11
f 11/1/12 10/2/12 14/3/12
f 9/1/13 12/2/13 16/3/13
f 10/1/14 9/2/14 13/3/14
f 4/4/15 1/1/15 3/3/15
f 12/4/16 8/1/16 11/3/16
f 1/1/17 5/2/17 2/4/17
f 2/1/18 6/2/18 3/4/18
f 4/4/19 3/1/19 8/3/19
f 5/1/20 1/2/20 8/4/20
f 16/4/21 12/1/21 15/3/21
f 11/4/22 7/1/22 10/3/22
f 9/4/23 5/1/23 12/3/23
f 10/4/24 6/1/24 9/3/24
f 14/4/11 13/1/11 15/3/11
f 15/4/21 11/1/21 14/3/21
f 13/4/25 9/1/25 16/3/25
f 14/4/25 10/1/25 13/3/25
