# Blender v2.70 (sub 0) OBJ File: 'skeletal.blend'
# www.blender.org
mtllib skeletal_000018.mtl
o Cube
v 0.768904 0.075749 -1.000000
v 0.787085 0.069790 1.000000
v -1.078058 0.230326 1.000000
v -1.071917 0.212206 -1.000000
v 0.386218 1.632558 -0.749999
v 0.386374 1.632718 0.750001
v -0.298230 2.433684 0.750000
v -0.278810 2.448267 -0.750000
v 1.764076 1.684290 -0.500000
v 1.772155 1.678781 0.500000
v 2.276351 2.328032 0.499999
v 2.284804 2.322265 -0.500001
v 2.711314 0.150820 -0.000001
v 2.711314 0.150820 -0.000001
v 2.711314 0.150820 -0.000001
v 2.711314 0.150820 -0.000001
vt 0.000000 0.000000
vt 1.000000 0.000000
vt 1.000000 1.000000
vt 0.000000 1.000000
vn -0.085754 -0.996314 -0.002189
vn 0.041994 0.999065 0.010256
vn 0.968675 0.248333 -0.000128
vn 0.093167 0.079633 0.992461
vn -0.942980 0.332728 -0.008974
vn 0.008028 0.108295 -0.994086
vn 0.980912 0.194319 0.007172
vn 0.170928 0.146098 0.974392
vn 0.100728 0.082120 -0.991519
vn 0.037500 -0.999297 0.000102
vn 0.000000 0.000000 1.000000
vn 0.225429 -0.175062 0.958402
vn 0.218183 -0.178086 -0.959522
vn -0.851349 -0.524585 0.003988
vn -0.073923 -0.997225 0.008808
vn 0.049609 0.998754 -0.005340
vn 0.970757 0.239929 -0.008109
vn 0.013892 0.161405 0.986790
vn -0.942247 0.334868 -0.005927
vn 0.265001 0.216048 -0.939733
vn -1.000000 0.000000 0.000000
vn 0.093444 -0.072565 0.992977
vn 0.181941 -0.148505 -0.972031
vn 0.032182 -0.999465 -0.005766
vn 1.000000 0.000000 0.000000
usemtl Material
s off
f 1/1/1 2/2/1 3/3/1
f 8/1/2 7/2/2 11/3/2
f 5/2/3 6/3/3 2/4/3
f 6/2/4 7/3/4 3/4/4
f 3/1/5 7/2/5 8/3/5
f 1/2/6 4/3/6 8/4/6
f 12/1/7 11/2/7 15/3/7
f 7/1/8 6/2/8 10/3/8
f 5/1/9 8/2/9 12/3/9
f 6/1/10 5/2/10 9/3/10
f 13/1/11 16/2/11 15/3/11
f 11/1/12 10/2/12 14/3/12
f 9/1/13 12/2/13 16/3/13
f 10/1/14 9/2/14 13/3/14
f 4/4/15 1/1/15 3/3/15
f 12/4/16 8/1/16 11/3/16
f 1/1/17 5/2/17 2/4/17
f 2/1/18 6/2/18 3/4/18
f 4/4/19 3/1/19 8/3/19
f 5/1/20 1/2/20 8/4/20
f 16/4/21 12/1/21 15/3/21
f 11/4/22 7/1/22 10/3/22
f 9/4/23 5/1/23 12/3/23
f 10/4/24 6/1/24 9/3/24
f 14/4/11 13/1/11 15/3/11
f 15/4/21 11/1/21 14/3/21
f 13/4/25 9/1/25 16/3/25
f 14/4/25 10/1/25 13/3/25
