# Blender v2.70 (sub 0) OBJ File: 'skeletal.blend'
# www.blender.org
mtllib skeletal_000015.mtl
o Cube
v 0.785365 0.049668 -1.000000
v 0.802250 0.045761 1.000000
v -1.089047 0.201509 1.000000
v -1.082041 0.185656 -1.000000
v 0.451467 1.639062 -0.750000
v 0.451595 1.639219 0.750001
v -0.375528 2.439408 0.750000
v -0.358760 2.456712 -0.750000
v 1.790595 2.005388 -0.500000
v 1.799575 2.001318 0.500000
v 2.183566 2.724435 0.499999
v 2.192963 2.720175 -0.500001
v 2.976933 0.650336 -0.000001
v 2.976933 0.650336 -0.000001
v 2.976933 0.650336 -0.000001
v 2.976933 0.650336 -0.000000
vt 0.000000 0.000000
vt 1.000000 0.000000
vt 1.000000 1.000000
vt 0.000000 1.000000
vn -0.082072 -0.996626 -0.001254
vn -0.109700 0.993912 0.010240
vn 0.976636 0.214901 -0.000106
vn 0.082020 0.084781 0.993018
vn -0.952953 0.303035 -0.007157
vn 0.007790 0.106965 -0.994232
vn 0.934561 0.355729 0.007266
vn 0.142094 0.146878 0.978895
vn 0.088192 0.087390 -0.992263
vn 0.263847 -0.964564 0.000078
vn 0.000000 0.000000 1.000000
vn 0.252842 -0.134264 0.958146
vn 0.246084 -0.138526 -0.959298
vn -0.753134 -0.657855 0.004085
vn -0.072628 -0.997330 0.007651
vn -0.102197 0.994750 -0.005199
vn 0.978358 0.206768 -0.007856
vn 0.012992 0.157772 0.987390
vn -0.952645 0.304029 -0.005747
vn 0.193799 0.192039 -0.962062
vn -1.000000 0.000000 0.000000
vn 0.103122 -0.054759 0.993160
vn 0.213917 -0.120419 -0.969401
vn 0.258340 -0.966034 -0.006252
vn 1.000000 0.000000 0.000000
usemtl Material
s off
f 1/1/1 2/2/1 3/3/1
f 8/1/2 7/2/2 11/3/2
f 5/2/3 6/3/3 2/4/3
f 6/2/4 7/3/4 3/4/4
f 3/1/5 7/2/5 8/3/5
f 1/2/6 4/3/6 8/4/6
f 12/1/7 11/2/7 15/3/7
f 7/1/8 6/2/8 10/3/8
f 5/1/9 8/2/9 12/3/9
f 6/1/10 5/2/10 9/3/10
f 13/1/11 16/2/11 15/3/11
f 11/1/12 10/2/12 14/3/12
f 9/1/13 12/2/13 16/3/13
f 10/1/14 9/2/14 13/3/14
f 4/4/15 1/1/15 3/3/15
f 12/4/16 8/1/16 11/3/16
f 1/1/17 5/2/17 2/4/17
f 2/1/18 6/2/18 3/4/18
f 4/4/19 3/1/19 8/3/19
f 5/1/20 1/2/20 8/4/20
f 16/4/21 12/1/21 15/3/21
f 11/4/22 7/1/22 10/3/22
f 9/4/23 5/1/23 12/3/23
f 10/4/24 6/1/24 9/3/24
f 14/4/11 13/1/11 15/3/11
f 15/4/21 11/1/21 14/3/21
f 13/4/25 9/1/25 16/3/25
f 14/4/25 10/1/25 13/3/25
