# Blender v2.70 (sub 0) OBJ File: 'skeletal.blend'
# www.blender.org
mtllib skeletal_000026.mtl
o Cube
v 0.795849 0.037207 -1.000000
v 0.811910 0.034280 1.000000
v -1.092725 0.185645 1.000000
v -1.085430 0.171041 -1.000000
v 0.485131 1.647151 -0.750000
v 0.485245 1.647304 0.750001
v -0.416506 2.436877 0.750000
v -0.401352 2.455421 -0.750000
v 1.781467 2.174827 -0.500000
v 1.790813 2.171589 0.500000
v 2.106477 2.925637 0.499999
v 2.116257 2.922246 -0.500001
v 3.083401 0.931233 -0.000000
v 3.083401 0.931233 -0.000001
v 3.083401 0.931233 -0.000000
v 3.083401 0.931233 -0.000000
vt 0.000000 0.000000
vt 1.000000 0.000000
vt 1.000000 1.000000
vt 0.000000 1.000000
vn -0.079222 -0.996857 -0.000823
vn -0.189200 0.981885 0.010227
vn 0.980106 0.198473 -0.000095
vn 0.076466 0.087331 0.993240
vn -0.957896 0.287049 -0.006129
vn 0.007580 0.106543 -0.994279
vn 0.898748 0.438405 0.007303
vn 0.128747 0.147040 0.980716
vn 0.081907 0.089832 -0.992583
vn 0.377003 -0.926212 0.000066
vn 0.000000 0.000000 1.000000
vn 0.264387 -0.110678 0.958045
vn 0.257994 -0.115563 -0.959210
vn -0.691541 -0.722325 0.004124
vn -0.070958 -0.997455 0.007025
vn -0.181823 0.983318 -0.005112
vn 0.981632 0.190635 -0.007604
vn 0.012365 0.155593 0.987744
vn -0.957785 0.287429 -0.005592
vn 0.166492 0.182602 -0.968988
vn -0.447214 -0.894427 0.000000
vn 0.107105 -0.044836 0.993236
vn 0.228352 -0.102286 -0.968190
vn 0.371574 -0.928380 -0.006479
vn 1.000000 0.000000 0.000000
vn 0.447214 0.894427 0.000000
usemtl Material
s off
f 1/1/1 2/2/1 3/3/1
f 8/1/2 7/2/2 11/3/2
f 5/2/3 6/3/3 2/4/3
f 6/2/4 7/3/4 3/4/4
f 3/1/5 7/2/5 8/3/5
f 1/2/6 4/3/6 8/4/6
f 12/1/7 11/2/7 15/3/7
f 7/1/8 6/2/8 10/3/8
f 5/1/9 8/2/9 12/3/9
f 6/1/10 5/2/10 9/3/10
f 13/1/11 16/2/11 15/3/11
f 11/1/12 10/2/12 14/3/12
f 9/1/13 12/2/13 16/3/13
f 10/1/14 9/2/14 13/3/14
f 4/4/15 1/1/15 3/3/15
f 12/4/16 8/1/16 11/3/16
f 1/1/17 5/2/17 2/4/17
f 2/1/18 6/2/18 3/4/18
f 4/4/19 3/1/19 8/3/19
f 5/1/20 1/2/20 8/4/20
f 16/4/21 12/1/21 15/3/21
f 11/4/22 7/1/22 10/3/22
f 9/4/23 5/1/23 12/3/23
f 10/4/24 6/1/24 9/3/24
f 14/4/11 13/1/11 15/3/11
f 15/4/21 11/1/21 14/3/21
f 13/4/25 9/1/25 16/3/25
f 14/4/26 10/1/26 13/3/26
