# Blender v2.70 (sub 0) OBJ File: 'skeletal.blend'
# www.blender.org
mtllib skeletal_000003.mtl
o Cube
v 0.988651 -0.005171 -1.000000
v 0.989544 -0.004765 1.000000
v -1.010947 0.005976 1.000000
v -1.010085 0.005506 -1.000000
v 0.749044 1.973501 -0.750000
v 0.749043 1.973512 0.750001
v -0.758051 2.032415 0.750000
v -0.760054 2.033720 -0.750000
v 0.638395 3.925907 -0.500000
v 0.638547 3.927008 0.500000
v -0.349171 4.069216 0.500000
v -0.349012 4.070368 -0.500000
v 0.545981 5.954026 0.000000
v 0.545981 5.954026 -0.000000
v 0.545981 5.954026 0.000000
v 0.545981 5.954026 0.000000
vt 0.000000 0.000000
vt 1.000000 0.000000
vt 1.000000 1.000000
vt 0.000000 1.000000
vn -0.005369 -0.999986 0.000206
vn -0.980404 0.196994 0.001481
vn 0.992691 0.120682 -0.000001
vn 0.004762 0.121854 0.992537
vn -0.992280 0.124012 0.001433
vn 0.000653 0.122256 -0.992498
vn -0.903266 0.429081 0.000350
vn 0.004972 0.127216 0.991863
vn 0.004824 0.120876 -0.992656
vn 0.998398 0.056582 -0.000000
vn 0.000000 0.000000 1.000000
vn 0.034674 0.240838 0.969946
vn 0.035220 0.240731 -0.969953
vn 0.998961 0.045569 -0.000201
vn -0.005342 -0.999986 0.000233
vn -0.980237 0.197826 0.000072
vn 0.992740 0.120275 -0.000468
vn 0.000674 0.125456 0.992099
vn -0.992480 0.122406 -0.000456
vn 0.005026 0.125948 -0.992024
vn 0.916157 -0.400819 0.000000
vn 0.017051 0.118437 0.992815
vn 0.018732 0.128032 -0.991593
vn 0.998406 0.056446 -0.000213
vn -1.000000 0.000000 0.000000
usemtl Material
s off
f 1/1/1 2/2/1 3/3/1
f 8/1/2 7/2/2 11/3/2
f 5/2/3 6/3/3 2/4/3
f 6/2/4 7/3/4 3/4/4
f 3/1/5 7/2/5 8/3/5
f 1/2/6 4/3/6 8/4/6
f 12/1/7 11/2/7 15/3/7
f 7/1/8 6/2/8 10/3/8
f 5/1/9 8/2/9 12/3/9
f 6/1/10 5/2/10 9/3/10
f 13/1/11 16/2/11 15/3/11
f 11/1/12 10/2/12 14/3/12
f 9/1/13 12/2/13 16/3/13
f 10/1/14 9/2/14 13/3/14
f 4/4/15 1/1/15 3/3/15
f 12/4/16 8/1/16 11/3/16
f 1/1/17 5/2/17 2/4/17
f 2/1/18 6/2/18 3/4/18
f 4/4/19 3/1/19 8/3/19
f 5/1/20 1/2/20 8/4/20
f 16/4/21 12/1/21 15/3/21
f 11/4/22 7/1/22 10/3/22
f 9/4/23 5/1/23 12/3/23
f 10/4/24 6/1/24 9/3/24
f 14/4/11 13/1/11 15/3/11
f 15/4/21 11/1/21 14/3/21
f 13/4/25 9/1/25 16/3/25
f 14/4/25 10/1/25 13/3/25
