# Blender v2.70 (sub 0) OBJ File: 'skeletal.blend'
# www.blender.org
mtllib skeletal_000035.mtl
o Cube
v 0.941605 -0.017210 -1.000000
v 0.946199 -0.015856 1.000000
v -1.048805 0.036390 1.000000
v -1.044965 0.033527 -1.000000
v 0.727204 1.872589 -0.750000
v 0.727213 1.872644 0.750001
v -0.751495 2.173631 0.750000
v -0.756907 2.183859 -0.750000
v 1.066288 3.579869 -0.500000
v 1.069513 3.583985 0.500000
v 0.336873 4.192681 0.500000
v 0.340248 4.196988 -0.500000
v 2.349399 4.997488 -0.000000
v 2.349399 4.997488 -0.000000
v 2.349399 4.997488 -0.000000
v 2.349399 4.997488 -0.000000
vt 0.000000 0.000000
vt 1.000000 0.000000
vt 1.000000 1.000000
vt 0.000000 1.000000
vn -0.026179 -0.999657 0.000737
vn -0.879905 0.475106 0.006414
vn 0.993344 0.115184 -0.000010
vn 0.022999 0.112994 0.993330
vn -0.990380 0.138299 0.004516
vn 0.002940 0.115094 -0.993350
vn -0.370719 0.928741 0.002748
vn 0.028283 0.138951 0.989895
vn 0.023224 0.110730 -0.993579
vn 0.980842 -0.194806 0.000001
vn 0.000000 0.000000 1.000000
vn 0.162223 0.195256 0.967243
vn 0.163921 0.192852 -0.967439
vn 0.741340 -0.671130 0.000371
vn -0.025532 -0.999673 0.001382
vn -0.878016 0.478631 -0.000903
vn 0.993588 0.113036 -0.002359
vn 0.003447 0.131627 0.991293
vn -0.991112 0.133013 -0.002093
vn 0.028154 0.134233 -0.990550
vn 1.000000 0.000000 0.000000
vn 0.070616 0.084997 0.993876
vn 0.105077 0.123622 -0.986750
vn 0.980508 -0.196464 -0.002354
vn 0.447214 -0.894427 0.000000
vn -0.447214 0.894427 0.000000
vn -1.000000 0.000000 0.000000
usemtl Material
s off
f 1/1/1 2/2/1 3/3/1
f 8/1/2 7/2/2 11/3/2
f 5/2/3 6/3/3 2/4/3
f 6/2/4 7/3/4 3/4/4
f 3/1/5 7/2/5 8/3/5
f 1/2/6 4/3/6 8/4/6
f 12/1/7 11/2/7 15/3/7
f 7/1/8 6/2/8 10/3/8
f 5/1/9 8/2/9 12/3/9
f 6/1/10 5/2/10 9/3/10
f 13/1/11 16/2/11 15/3/11
f 11/1/12 10/2/12 14/3/12
f 9/1/13 12/2/13 16/3/13
f 10/1/14 9/2/14 13/3/14
f 4/4/15 1/1/15 3/3/15
f 12/4/16 8/1/16 11/3/16
f 1/1/17 5/2/17 2/4/17
f 2/1/18 6/2/18 3/4/18
f 4/4/19 3/1/19 8/3/19
f 5/1/20 1/2/20 8/4/20
f 16/4/21 12/1/21 15/3/21
f 11/4/22 7/1/22 10/3/22
f 9/4/23 5/1/23 12/3/23
f 10/4/24 6/1/24 9/3/24
f 14/4/11 13/1/11 15/3/11
f 15/4/25 11/1/25 14/3/25
f 13/4/26 9/1/26 16/3/26
f 14/4/27 10/1/27 13/3/27
