# Blender v2.70 (sub 0) OBJ File: 'skeletal.blend'
# www.blender.org
mtllib skeletal_000029.mtl
o Cube
v 0.831867 0.007553 -1.000000
v 0.845094 0.006958 1.000000
v -1.094838 0.139038 1.000000
v -1.087377 0.128100 -1.000000
v 0.575772 1.687448 -0.750000
v 0.575846 1.687584 0.750001
v -0.530997 2.408440 0.750000
v -0.521110 2.429639 -0.750000
v 1.668035 2.646393 -0.500000
v 1.677965 2.645724 0.500000
v 1.784201 3.453663 0.499999
v 1.794594 3.452962 -0.500001
v 3.245654 1.781083 -0.000000
v 3.245654 1.781083 -0.000000
v 3.245654 1.781083 -0.000000
v 3.245654 1.781083 -0.000000
vt 0.000000 0.000000
vt 1.000000 0.000000
vt 1.000000 1.000000
vt 0.000000 1.000000
vn -0.067927 -0.997690 0.000153
vn -0.410537 0.911787 0.010180
vn 0.987410 0.158180 -0.000063
vn 0.061361 0.094217 0.993659
vn -0.970567 0.240811 -0.002994
vn 0.006681 0.106361 -0.994305
vn 0.754106 0.656711 0.007376
vn 0.095647 0.146864 0.984522
vn 0.064868 0.095868 -0.993278
vn 0.659752 -0.751484 0.000035
vn 0.000000 0.000000 1.000000
vn 0.284839 -0.037453 0.957843
vn 0.279863 -0.043914 -0.959035
vn -0.481921 -0.876204 0.004199
vn -0.062686 -0.998020 0.005224
vn -0.403757 0.914854 -0.004837
vn 0.988413 0.151647 -0.006492
vn 0.010125 0.148714 0.988828
vn -0.970905 0.239415 -0.004931
vn 0.110091 0.162702 -0.980514
vn -0.447214 -0.894427 0.000000
vn 0.114035 -0.014993 0.993364
vn 0.256358 -0.040226 -0.965744
vn 0.655169 -0.755450 -0.007012
vn 0.242536 0.970143 0.000000
usemtl Material
s off
f 1/1/1 2/2/1 3/3/1
f 8/1/2 7/2/2 11/3/2
f 5/2/3 6/3/3 2/4/3
f 6/2/4 7/3/4 3/4/4
f 3/1/5 7/2/5 8/3/5
f 1/2/6 4/3/6 8/4/6
f 12/1/7 11/2/7 15/3/7
f 7/1/8 6/2/8 10/3/8
f 5/1/9 8/2/9 12/3/9
f 6/1/10 5/2/10 9/3/10
f 13/1/11 16/2/11 15/3/11
f 11/1/12 10/2/12 14/3/12
f 9/1/13 12/2/13 16/3/13
f 10/1/14 9/2/14 13/3/14
f 4/4/15 1/1/15 3/3/15
f 12/4/16 8/1/16 11/3/16
f 1/1/17 5/2/17 2/4/17
f 2/1/18 6/2/18 3/4/18
f 4/4/19 3/1/19 8/3/19
f 5/1/20 1/2/20 8/4/20
f 16/4/21 12/1/21 15/3/21
f 11/4/22 7/1/22 10/3/22
f 9/4/23 5/1/23 12/3/23
f 10/4/24 6/1/24 9/3/24
f 14/4/11 13/1/11 15/3/11
f 15/4/21 11/1/21 14/3/21
f 13/4/25 9/1/25 16/3/25
f 14/4/25 10/1/25 13/3/25
