# Blender v2.70 (sub 0) OBJ File: 'skeletal.blend'
# www.blender.org
mtllib skeletal_000038.mtl
o Cube
v 0.991008 -0.004178 -1.000000
v 0.991715 -0.003849 1.000000
v -1.008738 0.004687 1.000000
v -1.008050 0.004318 -1.000000
v 0.749396 1.978928 -0.750000
v 0.749395 1.978937 0.750001
v -0.756790 2.025641 0.750000
v -0.758435 2.026648 -0.750000
v 0.610929 3.941403 -0.500000
v 0.611027 3.942296 0.500000
v -0.381049 4.056508 0.500000
v -0.380946 4.057442 -0.500000
v 0.438311 5.970352 0.000000
v 0.438311 5.970352 0.000000
v 0.438311 5.970352 0.000000
v 0.438311 5.970352 0.000000
vt 0.000000 0.000000
vt 1.000000 0.000000
vt 1.000000 1.000000
vt 0.000000 1.000000
vn -0.004267 -0.999991 0.000166
vn -0.983285 0.182070 0.001200
vn 0.992615 0.121309 -0.000000
vn 0.003792 0.122302 0.992486
vn -0.992300 0.123853 0.001171
vn 0.000521 0.122623 -0.992453
vn -0.919268 0.393631 0.000273
vn 0.003925 0.126584 0.991948
vn 0.003845 0.121477 -0.992587
vn 0.997520 0.070382 -0.000000
vn 0.000000 0.000000 1.000000
vn 0.027803 0.241513 0.969999
vn 0.028247 0.241444 -0.970004
vn 0.996397 0.084814 -0.000174
vn -0.004250 -0.999991 0.000183
vn -0.983161 0.182744 0.000069
vn 0.992654 0.120987 -0.000371
vn 0.000534 0.125159 0.992137
vn -0.992463 0.122544 -0.000364
vn 0.003974 0.125551 -0.992079
vn 0.926467 -0.376377 0.000000
vn 0.013775 0.119655 0.992720
vn 0.014904 0.127389 -0.991741
vn 0.997527 0.070280 -0.000161
vn 0.921364 -0.388701 0.000000
vn -1.000000 0.000000 0.000000
usemtl Material
s off
f 1/1/1 2/2/1 3/3/1
f 8/1/2 7/2/2 11/3/2
f 5/2/3 6/3/3 2/4/3
f 6/2/4 7/3/4 3/4/4
f 3/1/5 7/2/5 8/3/5
f 1/2/6 4/3/6 8/4/6
f 12/1/7 11/2/7 15/3/7
f 7/1/8 6/2/8 10/3/8
f 5/1/9 8/2/9 12/3/9
f 6/1/10 5/2/10 9/3/10
f 13/1/11 16/2/11 15/3/11
f 11/1/12 10/2/12 14/3/12
f 9/1/13 12/2/13 16/3/13
f 10/1/14 9/2/14 13/3/14
f 4/4/15 1/1/15 3/3/15
f 12/4/16 8/1/16 11/3/16
f 1/1/17 5/2/17 2/4/17
f 2/1/18 6/2/18 3/4/18
f 4/4/19 3/1/19 8/3/19
f 5/1/20 1/2/20 8/4/20
f 16/4/21 12/1/21 15/3/21
f 11/4/22 7/1/22 10/3/22
f 9/4/23 5/1/23 12/3/23
f 10/4/24 6/1/24 9/3/24
f 14/4/11 13/1/11 15/3/11
f 15/4/25 11/1/25 14/3/25
f 13/4/26 9/1/26 16/3/26
f 14/4/26 10/1/26 13/3/26
