# Blender v2.70 (sub 0) OBJ File: 'skeletal.blend'
# www.blender.org
mtllib skeletal_000022.mtl
o Cube
v 0.769017 0.075531 -1.000000
v 0.787188 0.069589 1.000000
v -1.078166 0.230105 1.000000
v -1.072016 0.212003 -1.000000
v 0.386740 1.632564 -0.749999
v 0.386896 1.632723 0.750001
v -0.298846 2.433784 0.750000
v -0.279447 2.448389 -0.750000
v 1.764523 1.686796 -0.500000
v 1.772610 1.681299 0.500000
v 2.275883 2.331266 0.499999
v 2.284344 2.325511 -0.500001
v 2.713939 0.154674 -0.000001
v 2.713939 0.154674 -0.000001
v 2.713939 0.154674 -0.000001
v 2.713939 0.154674 -0.000001
vt 0.000000 0.000000
vt 1.000000 0.000000
vt 1.000000 1.000000
vt 0.000000 1.000000
vn -0.085734 -0.996316 -0.002181
vn 0.040778 0.999116 0.010256
vn 0.968745 0.248058 -0.000128
vn 0.093074 0.079677 0.992466
vn -0.943063 0.332493 -0.008959
vn 0.008027 0.108282 -0.994088
vn 0.980635 0.195713 0.007171
vn 0.170678 0.146110 0.974434
vn 0.100623 0.082166 -0.991526
vn 0.039313 -0.999227 0.000102
vn 0.000000 0.000000 1.000000
vn 0.225677 -0.174742 0.958402
vn 0.218435 -0.177776 -0.959522
vn -0.850602 -0.525794 0.003988
vn -0.073922 -0.997225 0.008799
vn 0.048392 0.998814 -0.005338
vn 0.970824 0.239655 -0.008109
vn 0.013887 0.161379 0.986795
vn -0.942333 0.334623 -0.005926
vn 0.264291 0.215814 -0.939986
vn -1.000000 0.000000 0.000000
vn 0.093532 -0.072421 0.992979
vn 0.182209 -0.148293 -0.972013
vn 0.033993 -0.999405 -0.005770
vn 1.000000 0.000000 0.000000
usemtl Material
s off
f 1/1/1 2/2/1 3/3/1
f 8/1/2 7/2/2 11/3/2
f 5/2/3 6/3/3 2/4/3
f 6/2/4 7/3/4 3/4/4
f 3/1/5 7/2/5 8/3/5
f 1/2/6 4/3/6 8/4/6
f 12/1/7 11/2/7 15/3/7
f 7/1/8 6/2/8 10/3/8
f 5/1/9 8/2/9 12/3/9
f 6/1/10 5/2/10 9/3/10
f 13/1/11 16/2/11 15/3/11
f 11/1/12 10/2/12 14/3/12
f 9/1/13 12/2/13 16/3/13
f 10/1/14 9/2/14 13/3/14
f 4/4/15 1/1/15 3/3/15
f 12/4/16 8/1/16 11/3/16
f 1/1/17 5/2/17 2/4/17
f 2/1/18 6/2/18 3/4/18
f 4/4/19 3/1/19 8/3/19
f 5/1/20 1/2/20 8/4/20
f 16/4/21 12/1/21 15/3/21
f 11/4/22 7/1/22 10/3/22
f 9/4/23 5/1/23 12/3/23
f 10/4/24 6/1/24 9/3/24
f 14/4/11 13/1/11 15/3/11
f 15/4/21 11/1/21 14/3/21
f 13/4/25 9/1/25 16/3/25
f 14/4/25 10/1/25 13/3/25
