# Blender v2.70 (sub 0) OBJ File: 'skeletal.blend'
# www.blender.org
mtllib skeletal_000024.mtl
o Cube
v 0.778316 0.059604 -1.000000
v 0.795755 0.054915 1.000000
v -1.085328 0.213110 1.000000
v -1.078615 0.196345 -1.000000
v 0.425869 1.635103 -0.749999
v 0.426009 1.635262 0.750001
v -0.344912 2.438783 0.750000
v -0.327039 2.455066 -0.750000
v 1.787041 1.878206 -0.500000
v 1.795694 1.873548 0.500000
v 2.228573 2.570021 0.499999
v 2.237628 2.565145 -0.500001
v 2.882553 0.448015 -0.000001
v 2.882553 0.448015 -0.000001
v 2.882553 0.448015 -0.000001
v 2.882553 0.448015 -0.000000
vt 0.000000 0.000000
vt 1.000000 0.000000
vt 1.000000 1.000000
vt 0.000000 1.000000
vn -0.083802 -0.996481 -0.001605
vn -0.049935 0.998700 0.010246
vn 0.973709 0.227796 -0.000115
vn 0.086308 0.082807 0.992821
vn -0.949107 0.314854 -0.007891
vn 0.007909 0.107407 -0.994184
vn 0.956098 0.292956 0.007229
vn 0.152866 0.146665 0.977303
vn 0.093031 0.085422 -0.991992
vn 0.175800 -0.984426 0.000088
vn 0.000000 0.000000 1.000000
vn 0.242857 -0.150942 0.958247
vn 0.235880 -0.154723 -0.959386
vn -0.794542 -0.607196 0.004047
vn -0.073437 -0.997267 0.008113
vn -0.042370 0.999088 -0.005255
vn 0.975578 0.219509 -0.007992
vn 0.013396 0.159293 0.987141
vn -0.948641 0.316301 -0.005836
vn 0.218220 0.200373 -0.955108
vn -1.000000 0.000000 0.000000
vn 0.099632 -0.061923 0.993096
vn 0.201882 -0.132422 -0.970416
vn 0.170320 -0.985370 -0.006063
vn 1.000000 0.000000 0.000000
usemtl Material
s off
f 1/1/1 2/2/1 3/3/1
f 8/1/2 7/2/2 11/3/2
f 5/2/3 6/3/3 2/4/3
f 6/2/4 7/3/4 3/4/4
f 3/1/5 7/2/5 8/3/5
f 1/2/6 4/3/6 8/4/6
f 12/1/7 11/2/7 15/3/7
f 7/1/8 6/2/8 10/3/8
f 5/1/9 8/2/9 12/3/9
f 6/1/10 5/2/10 9/3/10
f 13/1/11 16/2/11 15/3/11
f 11/1/12 10/2/12 14/3/12
f 9/1/13 12/2/13 16/3/13
f 10/1/14 9/2/14 13/3/14
f 4/4/15 1/1/15 3/3/15
f 12/4/16 8/1/16 11/3/16
f 1/1/17 5/2/17 2/4/17
f 2/1/18 6/2/18 3/4/18
f 4/4/19 3/1/19 8/3/19
f 5/1/20 1/2/20 8/4/20
f 16/4/21 12/1/21 15/3/21
f 11/4/22 7/1/22 10/3/22
f 9/4/23 5/1/23 12/3/23
f 10/4/24 6/1/24 9/3/24
f 14/4/11 13/1/11 15/3/11
f 15/4/21 11/1/21 14/3/21
f 13/4/25 9/1/25 16/3/25
f 14/4/25 10/1/25 13/3/25
