# Blender v2.70 (sub 0) OBJ File: 'skeletal.blend'
# www.blender.org
mtllib skeletal_000012.mtl
o Cube
v 0.818437 0.016751 -1.000000
v 0.832720 0.015433 1.000000
v -1.095537 0.155302 1.000000
v -1.088021 0.143084 -1.000000
v 0.545509 1.670655 -0.750000
v 0.545596 1.670798 0.750001
v -0.491984 2.421867 0.750000
v -0.480163 2.442310 -0.750000
v 1.721790 2.486256 -0.500000
v 1.731602 2.484667 0.500000
v 1.912655 3.279747 0.499999
v 1.922923 3.278082 -0.500001
v 3.213305 1.479358 -0.000000
v 3.213305 1.479358 -0.000000
v 3.213305 1.479358 -0.000000
v 3.213305 1.479358 -0.000000
vt 0.000000 0.000000
vt 1.000000 0.000000
vt 1.000000 1.000000
vt 0.000000 1.000000
vn -0.072346 -0.997380 -0.000141
vn -0.335059 0.942142 0.010200
vn 0.985290 0.170888 -0.000074
vn 0.066506 0.091878 0.993547
vn -0.966431 0.256893 -0.004115
vn 0.007041 0.106253 -0.994314
vn 0.811548 0.584240 0.007361
vn 0.106412 0.147006 0.983395
vn 0.070652 0.093908 -0.993071
vn 0.569795 -0.821787 0.000045
vn 0.000000 0.000000 1.000000
vn 0.279982 -0.063755 0.957886
vn 0.274446 -0.069714 -0.959072
vn -0.560479 -0.828158 0.004183
vn -0.066120 -0.997795 0.005847
vn -0.328029 0.944655 -0.004941
vn 0.986463 0.163835 -0.006937
vn 0.010966 0.151181 0.988445
vn -0.966631 0.256119 -0.005197
vn 0.126917 0.168695 -0.977463
vn -0.447214 -0.894427 0.000000
vn 0.112404 -0.025595 0.993333
vn 0.249290 -0.063324 -0.966356
vn 0.564820 -0.825186 -0.006853
vn 0.242536 0.970143 0.000000
vn 1.000000 0.000000 0.000000
usemtl Material
s off
f 1/1/1 2/2/1 3/3/1
f 8/1/2 7/2/2 11/3/2
f 5/2/3 6/3/3 2/4/3
f 6/2/4 7/3/4 3/4/4
f 3/1/5 7/2/5 8/3/5
f 1/2/6 4/3/6 8/4/6
f 12/1/7 11/2/7 15/3/7
f 7/1/8 6/2/8 10/3/8
f 5/1/9 8/2/9 12/3/9
f 6/1/10 5/2/10 9/3/10
f 13/1/11 16/2/11 15/3/11
f 11/1/12 10/2/12 14/3/12
f 9/1/13 12/2/13 16/3/13
f 10/1/14 9/2/14 13/3/14
f 4/4/15 1/1/15 3/3/15
f 12/4/16 8/1/16 11/3/16
f 1/1/17 5/2/17 2/4/17
f 2/1/18 6/2/18 3/4/18
f 4/4/19 3/1/19 8/3/19
f 5/1/20 1/2/20 8/4/20
f 16/4/21 12/1/21 15/3/21
f 11/4/22 7/1/22 10/3/22
f 9/4/23 5/1/23 12/3/23
f 10/4/24 6/1/24 9/3/24
f 14/4/11 13/1/11 15/3/11
f 15/4/21 11/1/21 14/3/21
f 13/4/25 9/1/25 16/3/25
f 14/4/26 10/1/26 13/3/26
