# Blender v2.70 (sub 0) OBJ File: 'skeletal.blend'
# www.blender.org
mtllib skeletal_000004.mtl
o Cube
v 0.973753 -0.010536 -1.000000
v 0.975817 -0.009707 1.000000
v -1.024178 0.014676 1.000000
v -1.022275 0.013522 -1.000000
v 0.745080 1.940068 -0.750000
v 0.745081 1.940094 0.750001
v -0.762976 2.076537 0.750000
v -0.766959 2.080206 -0.750000
v 0.796835 3.820920 -0.500000
v 0.797595 3.823293 0.500000
v -0.140617 4.137454 0.500000
v -0.139821 4.139938 -0.500000
v 1.207406 5.768622 -0.000000
v 1.207406 5.768622 -0.000000
v 1.207406 5.768622 -0.000000
v 1.207406 5.768622 -0.000000
vt 0.000000 0.000000
vt 1.000000 0.000000
vt 1.000000 1.000000
vt 0.000000 1.000000
vn -0.012191 -0.999926 0.000427
vn -0.957188 0.289448 0.003249
vn 0.993071 0.117518 -0.000003
vn 0.010768 0.119017 0.992834
vn -0.992022 0.126028 0.002942
vn 0.001446 0.119915 -0.992783
vn -0.770691 0.637208 0.000970
vn 0.011876 0.131264 0.991276
vn 0.010865 0.117223 -0.993046
vn 0.999622 -0.027506 -0.000000
vn 0.000000 0.000000 1.000000
vn 0.077935 0.232746 0.969410
vn 0.079085 0.232198 -0.969448
vn 0.978509 -0.206202 -0.000254
vn -0.012052 -0.999927 0.000566
vn -0.956639 0.291277 -0.000038
vn 0.993182 0.116570 -0.001074
vn 0.001553 0.127357 0.991856
vn -0.992440 0.122728 -0.001015
vn 0.011909 0.128490 -0.991639
vn 1.000000 0.000000 0.000000
vn 0.036642 0.109430 0.993319
vn 0.044423 0.130428 -0.990462
vn 0.999609 -0.027966 -0.000693
vn 0.894427 -0.447214 0.000000
vn -1.000000 0.000000 0.000000
usemtl Material
s off
f 1/1/1 2/2/1 3/3/1
f 8/1/2 7/2/2 11/3/2
f 5/2/3 6/3/3 2/4/3
f 6/2/4 7/3/4 3/4/4
f 3/1/5 7/2/5 8/3/5
f 1/2/6 4/3/6 8/4/6
f 12/1/7 11/2/7 15/3/7
f 7/1/8 6/2/8 10/3/8
f 5/1/9 8/2/9 12/3/9
f 6/1/10 5/2/10 9/3/10
f 13/1/11 16/2/11 15/3/11
f 11/1/12 10/2/12 14/3/12
f 9/1/13 12/2/13 16/3/13
f 10/1/14 9/2/14 13/3/14
f 4/4/15 1/1/15 3/3/15
f 12/4/16 8/1/16 11/3/16
f 1/1/17 5/2/17 2/4/17
f 2/1/18 6/2/18 3/4/18
f 4/4/19 3/1/19 8/3/19
f 5/1/20 1/2/20 8/4/20
f 16/4/21 12/1/21 15/3/21
f 11/4/22 7/1/22 10/3/22
f 9/4/23 5/1/23 12/3/23
f 10/4/24 6/1/24 9/3/24
f 14/4/11 13/1/11 15/3/11
f 15/4/25 11/1/25 14/3/25
f 13/4/26 9/1/26 16/3/26
f 14/4/26 10/1/26 13/3/26
