# Blender v2.70 (sub 0) OBJ File: 'skeletal.blend'
# www.blender.org
mtllib skeletal_000028.mtl
o Cube
v 0.819403 0.016026 -1.000000
v 0.833610 0.014765 1.000000
v -1.095538 0.154093 1.000000
v -1.088022 0.141971 -1.000000
v 0.547807 1.671802 -0.750000
v 0.547894 1.671945 0.750001
v -0.494930 2.420992 0.750000
v -0.483252 2.441496 -0.750000
v 1.718348 2.498282 -0.500000
v 1.728171 2.496762 0.500000
v 1.903660 3.293089 0.499999
v 1.913940 3.291497 -0.500001
v 3.216867 1.501839 -0.000000
v 3.216867 1.501839 -0.000000
v 3.216867 1.501839 -0.000000
v 3.216867 1.501839 -0.000000
vt 0.000000 0.000000
vt 1.000000 0.000000
vt 1.000000 1.000000
vt 0.000000 1.000000
vn -0.072035 -0.997402 -0.000117
vn -0.340746 0.940100 0.010198
vn 0.985462 0.169894 -0.000073
vn 0.066120 0.092054 0.993556
vn -0.966750 0.255693 -0.004031
vn 0.007016 0.106255 -0.994314
vn 0.807443 0.589900 0.007361
vn 0.105588 0.147001 0.983485
vn 0.070216 0.094059 -0.993087
vn 0.576778 -0.816901 0.000044
vn 0.000000 0.000000 1.000000
vn 0.280421 -0.061796 0.957886
vn 0.274927 -0.067793 -0.959072
vn -0.554674 -0.832057 0.004183
vn -0.065884 -0.997810 0.005800
vn -0.333734 0.942654 -0.004931
vn 0.986622 0.162877 -0.006906
vn 0.010906 0.151000 0.988474
vn -0.966961 0.254871 -0.005179
vn 0.125579 0.168221 -0.977718
vn -0.447214 -0.894427 0.000000
vn 0.112551 -0.024802 0.993336
vn 0.249889 -0.061619 -0.966312
vn 0.571830 -0.820343 -0.006864
vn 0.242536 0.970143 0.000000
vn 1.000000 0.000000 0.000000
usemtl Material
s off
f 1/1/1 2/2/1 3/3/1
f 8/1/2 7/2/2 11/3/2
f 5/2/3 6/3/3 2/4/3
f 6/2/4 7/3/4 3/4/4
f 3/1/5 7/2/5 8/3/5
f 1/2/6 4/3/6 8/4/6
f 12/1/7 11/2/7 15/3/7
f 7/1/8 6/2/8 10/3/8
f 5/1/9 8/2/9 12/3/9
f 6/1/10 5/2/10 9/3/10
f 13/1/11 16/2/11 15/3/11
f 11/1/12 10/2/12 14/3/12
f 9/1/13 12/2/13 16/3/13
f 10/1/14 9/2/14 13/3/14
f 4/4/15 1/1/15 3/3/15
f 12/4/16 8/1/16 11/3/16
f 1/1/17 5/2/17 2/4/17
f 2/1/18 6/2/18 3/4/18
f 4/4/19 3/1/19 8/3/19
f 5/1/20 1/2/20 8/4/20
f 16/4/21 12/1/21 15/3/21
f 11/4/22 7/1/22 10/3/22
f 9/4/23 5/1/23 12/3/23
f 10/4/24 6/1/24 9/3/24
f 14/4/11 13/1/11 15/3/11
f 15/4/21 11/1/21 14/3/21
f 13/4/25 9/1/25 16/3/25
f 14/4/26 10/1/26 13/3/26
