# Blender v2.70 (sub 0) OBJ File: 'skeletal.blend'
# www.blender.org
mtllib skeletal_000039.mtl
o Cube
v 0.997824 -0.001069 -1.000000
v 0.997996 -0.000985 1.000000
v -1.002160 0.001099 1.000000
v -1.001990 0.001013 -1.000000
v 0.749964 1.994847 -0.750000
v 0.749963 1.994849 0.750001
v -0.751862 2.006124 0.750000
v -0.752284 2.006337 -0.750000
v 0.527821 3.986186 -0.500000
v 0.527826 3.986407 0.500000
v -0.471694 4.014534 0.500000
v -0.471688 4.014766 -0.500000
v 0.107912 5.998208 0.000000
v 0.107912 5.998208 0.000000
v 0.107912 5.998208 0.000000
v 0.107912 5.998208 0.000000
vt 0.000000 0.000000
vt 1.000000 0.000000
vt 1.000000 1.000000
vt 0.000000 1.000000
vn -0.001042 -1.000000 0.000042
vn -0.990405 0.138196 0.000298
vn 0.992366 0.123326 0.000000
vn 0.000927 0.123615 0.992330
vn -0.992293 0.123910 0.000297
vn 0.000129 0.123695 -0.992320
vn -0.959861 0.280475 0.000059
vn 0.000935 0.124655 0.992200
vn 0.000944 0.123392 -0.992357
vn 0.993835 0.110867 0.000000
vn 0.000000 0.000000 1.000000
vn 0.006824 0.242532 0.970119
vn 0.006935 0.242528 -0.970120
vn 0.978906 0.204310 -0.000050
vn -0.001041 -1.000000 0.000043
vn -0.990382 0.138362 0.000026
vn 0.992376 0.123248 -0.000090
vn 0.000129 0.124305 0.992244
vn -0.992335 0.123578 -0.000090
vn 0.000952 0.124401 -0.992231
vn 0.970143 -0.242536 0.000000
vn 0.003462 0.123047 0.992395
vn 0.003573 0.124957 -0.992156
vn 0.993837 0.110848 -0.000030
vn 0.936329 -0.351123 0.000000
vn -0.970143 -0.242536 0.000000
usemtl Material
s off
f 1/1/1 2/2/1 3/3/1
f 8/1/2 7/2/2 11/3/2
f 5/2/3 6/3/3 2/4/3
f 6/2/4 7/3/4 3/4/4
f 3/1/5 7/2/5 8/3/5
f 1/2/6 4/3/6 8/4/6
f 12/1/7 11/2/7 15/3/7
f 7/1/8 6/2/8 10/3/8
f 5/1/9 8/2/9 12/3/9
f 6/1/10 5/2/10 9/3/10
f 13/1/11 16/2/11 15/3/11
f 11/1/12 10/2/12 14/3/12
f 9/1/13 12/2/13 16/3/13
f 10/1/14 9/2/14 13/3/14
f 4/4/15 1/1/15 3/3/15
f 12/4/16 8/1/16 11/3/16
f 1/1/17 5/2/17 2/4/17
f 2/1/18 6/2/18 3/4/18
f 4/4/19 3/1/19 8/3/19
f 5/1/20 1/2/20 8/4/20
f 16/4/21 12/1/21 15/3/21
f 11/4/22 7/1/22 10/3/22
f 9/4/23 5/1/23 12/3/23
f 10/4/24 6/1/24 9/3/24
f 14/4/11 13/1/11 15/3/11
f 15/4/25 11/1/25 14/3/25
f 13/4/26 9/1/26 16/3/26
f 14/4/26 10/1/26 13/3/26
