# Blender v2.70 (sub 0) OBJ File: 'skeletal.blend'
# www.blender.org
mtllib skeletal_000033.mtl
o Cube
v 0.895727 -0.016127 -1.000000
v 0.903930 -0.014858 1.000000
v -1.075466 0.073742 1.000000
v -1.069528 0.067941 -1.000000
v 0.681523 1.786373 -0.750000
v 0.681552 1.786466 0.750001
v -0.685656 2.297784 0.750000
v -0.686604 2.316414 -0.750000
v 1.348120 3.230263 -0.500000
v 1.355547 3.233831 0.500000
v 1.014675 4.042262 0.500000
v 1.022448 4.045995 -0.500000
v 3.159709 3.517586 -0.000000
v 3.159709 3.517586 -0.000000
v 3.159709 3.517586 -0.000000
v 3.159709 3.517586 -0.000000
vt 0.000000 0.000000
vt 1.000000 0.000000
vt 1.000000 1.000000
vt 0.000000 1.000000
vn -0.044717 -0.998999 0.000817
vn -0.715426 0.698629 0.009129
vn 0.992466 0.122519 -0.000027
vn 0.039205 0.104830 0.993717
vn -0.984928 0.172941 0.002770
vn 0.004694 0.109715 -0.993952
vn 0.238798 0.971054 0.005481
vn 0.054350 0.145327 0.987890
vn 0.040244 0.103877 -0.993776
vn 0.907914 -0.419156 0.000008
vn 0.000000 0.000000 1.000000
vn 0.250142 0.105472 0.962447
vn 0.249985 0.099803 -0.963092
vn 0.156007 -0.987753 0.002365
vn -0.042738 -0.999083 0.002771
vn -0.711103 0.703082 -0.002903
vn 0.992937 0.118573 -0.004148
vn 0.006187 0.138215 0.990383
vn -0.985738 0.168255 -0.003414
vn 0.055655 0.143655 -0.988062
vn -0.124035 -0.992278 0.000000
vn 0.102001 0.043009 0.993854
vn 0.196563 0.078474 -0.977346
vn 0.906171 -0.422879 -0.005222
vn -0.062378 0.998053 0.000000
usemtl Material
s off
f 1/1/1 2/2/1 3/3/1
f 8/1/2 7/2/2 11/3/2
f 5/2/3 6/3/3 2/4/3
f 6/2/4 7/3/4 3/4/4
f 3/1/5 7/2/5 8/3/5
f 1/2/6 4/3/6 8/4/6
f 12/1/7 11/2/7 15/3/7
f 7/1/8 6/2/8 10/3/8
f 5/1/9 8/2/9 12/3/9
f 6/1/10 5/2/10 9/3/10
f 13/1/11 16/2/11 15/3/11
f 11/1/12 10/2/12 14/3/12
f 9/1/13 12/2/13 16/3/13
f 10/1/14 9/2/14 13/3/14
f 4/4/15 1/1/15 3/3/15
f 12/4/16 8/1/16 11/3/16
f 1/1/17 5/2/17 2/4/17
f 2/1/18 6/2/18 3/4/18
f 4/4/19 3/1/19 8/3/19
f 5/1/20 1/2/20 8/4/20
f 16/4/21 12/1/21 15/3/21
f 11/4/22 7/1/22 10/3/22
f 9/4/23 5/1/23 12/3/23
f 10/4/24 6/1/24 9/3/24
f 14/4/11 13/1/11 15/3/11
f 15/4/21 11/1/21 14/3/21
f 13/4/25 9/1/25 16/3/25
f 14/4/25 10/1/25 13/3/25
